<svg xmlns="http://www.w3.org/2000/svg" style="display: none">

  <!-- Іконка корзини -->
  <symbol id="basket" viewBox="0 0 24 24">
    <path d="M24,3H4.242L4.2,2.649A3,3,0,0,0,1.222,0H0V2H1.222a1,1,0,0,1,.993.883L3.8,16.351A3,3,0,0,0,6.778,19H20V17H6.778a1,1,0,0,1-.993-.884L5.654,15H21.836ZM20.164,13H5.419L4.478,5H21.607Z"></path>
    <circle cx="7" cy="22" r="2"></circle>
    <circle cx="17" cy="22" r="2"></circle>
  </symbol>

  <!-- Іконка лупи -->
  <symbol id="search" viewBox="0 0 24 24">
    <path d="M24,22.586l-6.262-6.262a10.016,10.016,0,1,0-1.414,1.414L22.586,24ZM10,18a8,8,0,1,1,8-8A8.009,8.009,0,0,1,10,18Z"></path>
  </symbol>

  <!-- Іконка персони -->
  <symbol id="user" viewBox="0 0 24 24">
    <path d="M21,24H19V18.957A2.96,2.96,0,0,0,16.043,16H7.957A2.96,2.96,0,0,0,5,18.957V24H3V18.957A4.963,4.963,0,0,1,7.957,14h8.086A4.963,4.963,0,0,1,21,18.957Z"></path>
    <path d="M12,12a6,6,0,1,1,6-6A6.006,6.006,0,0,1,12,12ZM12,2a4,4,0,1,0,4,4A4,4,0,0,0,12,2Z"></path>
  </symbol>

  <!-- Іконка Instagram -->
  <symbol id="instagram" viewBox="0 0 24 24">
    <path d="M12,2.162c3.204,0,3.584,0.012,4.849,0.07c1.308,0.06,2.655,0.358,3.608,1.311c0.962,0.962,1.251,2.296,1.311,3.608c0.058,1.265,0.07,1.645,0.07,4.849c0,3.204-0.012,3.584-0.07,4.849c-0.059,1.301-0.364,2.661-1.311,3.608c-0.962,0.962-2.295,1.251-3.608,1.311c-1.265,0.058-1.645,0.07-4.849,0.07s-3.584-0.012-4.849-0.07c-1.291-0.059-2.669-0.371-3.608-1.311c-0.957-0.957-1.251-2.304-1.311-3.608c-0.058-1.265-0.07-1.645-0.07-4.849c0-3.204,0.012-3.584,0.07-4.849c0.059-1.296,0.367-2.664,1.311-3.608c0.96-0.96,2.299-1.251,3.608-1.311C8.416,2.174,8.796,2.162,12,2.162M12,0C8.741,0,8.332,0.014,7.052,0.072C5.197,0.157,3.355,0.673,2.014,2.014C0.668,3.36,0.157,5.198,0.072,7.052C0.014,8.332,0,8.741,0,12c0,3.259,0.014,3.668,0.072,4.948c0.085,1.853,0.603,3.7,1.942,5.038c1.345,1.345,3.186,1.857,5.038,1.942C8.332,23.986,8.741,24,12,24c3.259,0,3.668-0.014,4.948-0.072c1.854-0.085,3.698-0.602,5.038-1.942c1.347-1.347,1.857-3.184,1.942-5.038C23.986,15.668,24,15.259,24,12c0-3.259-0.014-3.668-0.072-4.948c-0.085-1.855-0.602-3.698-1.942-5.038c-1.343-1.343-3.189-1.858-5.038-1.942C15.668,0.014,15.259,0,12,0z"></path>
    <path d="M12,5.838c-3.403,0-6.162,2.759-6.162,6.162c0,3.403,2.759,6.162,6.162,6.162s6.162-2.759,6.162-6.162C18.162,8.597,15.403,5.838,12,5.838z M12,16c-2.209,0-4-1.791-4-4s1.791-4,4-4s4,1.791,4,4S14.209,16,12,16z"></path>
    <circle cx="18.406" cy="5.594" r="1.44"></circle>
  </symbol>

  <!-- Іконка Facebook -->
  <symbol id="facebook" viewBox="0 0 24 24">
    <path d="M24,12.073c0,5.989-4.394,10.954-10.13,11.855v-8.363h2.789l0.531-3.46H13.87V9.86c0-0.947,0.464-1.869,1.95-1.869h1.509V5.045c0,0-1.37-0.234-2.679-0.234c-2.734,0-4.52,1.657-4.52,4.656v2.637H7.091v3.46h3.039v8.363C4.395,23.025,0,18.061,0,12.073c0-6.627,5.373-12,12-12S24,5.445,24,12.073z"></path>
  </symbol>

  <!-- Іконка Telegram -->
  <symbol id="telegram" viewBox="0 0 24 24">
    <path d="M1.444,6.669a2,2,0,0,0-.865,3.337l3.412,3.408V20h6.593l3.435,3.43a1.987,1.987,0,0,0,1.408.588,2.034,2.034,0,0,0,.51-.066,1.978,1.978,0,0,0,1.42-1.379L23.991.021ZM2,8.592l17.028-5.02L5.993,16.586v-4Zm13.44,13.424L11.413,18h-4L20.446,4.978Z"></path>
  </symbol>

  <!-- Іконка Пошта -->
  <symbol id="mail" viewBox="0 0 24 24">
     <path d="M21,1H3A3,3,0,0,0,0,4V23H24V4A3,3,0,0,0,21,1ZM3,3H21a1,1,0,0,1,1,1v.667l-7.878,7.879a3.007,3.007,0,0,1-4.244,0L2,4.667V4A1,1,0,0,1,3,3ZM2,21V7.5L8.464,13.96a5.007,5.007,0,0,0,7.072,0L22,7.5V21Z"></path>
  </symbol>

  <!-- Стрілка вправо -->
  <symbol id="arrow-right" viewBox="0 0 24 24">
    <path d="M7.412,24,6,22.588l9.881-9.881a1,1,0,0,0,0-1.414L6.017,1.431,7.431.017l9.862,9.862a3,3,0,0,1,0,4.242Z"></path>
  </symbol>

  <!-- Стрілка вліво -->
  <symbol id="arrow-left" viewBox="0 0 24 24">
    <path d="M16.752,23.994,6.879,14.121a3,3,0,0,1,0-4.242L16.746.012,18.16,1.426,8.293,11.293a1,1,0,0,0,0,1.414l9.873,9.873Z"></path>
  </symbol>

    <!-- Іконка галочки -->
  <symbol id="check" viewBox="0 0 24 24">
   <path d="M22.319,4.431,8.5,18.249a1,1,0,0,1-1.417,0L1.739,12.9a1,1,0,0,0-1.417,0h0a1,1,0,0,0,0,1.417l5.346,5.345a3.008,3.008,0,0,0,4.25,0L23.736,5.847a1,1,0,0,0,0-1.416h0A1,1,0,0,0,22.319,4.431Z"></path>
  </symbol>

    <!-- Іконка хрестика -->
  <symbol id="cross" viewBox="0 0 24 24">
   <path d="M23.707.293h0a1,1,0,0,0-1.414,0L12,10.586,1.707.293a1,1,0,0,0-1.414,0h0a1,1,0,0,0,0,1.414L10.586,12,.293,22.293a1,1,0,0,0,0,1.414h0a1,1,0,0,0,1.414,0L12,13.414,22.293,23.707a1,1,0,0,0,1.414,0h0a1,1,0,0,0,0-1.414L13.414,12,23.707,1.707A1,1,0,0,0,23.707.293Z"></path>
  </symbol>

    <!-- Іконка сердечка -->
  <symbol id="heart" viewBox="0 0 24 24">
   <path d="M17.5.917a6.4,6.4,0,0,0-5.5,3.3A6.4,6.4,0,0,0,6.5.917,6.8,6.8,0,0,0,0,7.967c0,6.775,10.956,14.6,11.422,14.932l.578.409.578-.409C13.044,22.569,24,14.742,24,7.967A6.8,6.8,0,0,0,17.5.917ZM12,20.846c-3.253-2.43-10-8.4-10-12.879a4.8,4.8,0,0,1,4.5-5.05A4.8,4.8,0,0,1,11,7.967h2a4.8,4.8,0,0,1,4.5-5.05A4.8,4.8,0,0,1,22,7.967C22,12.448,15.253,18.416,12,20.846Z"></path>
  </symbol>

      <!-- Іконка планети -->
  <symbol id="globe" viewBox="0 0 24 24">
   <path d="M12 0a12 12 0 1 0 24 12A12.013 12.013 0 0 0 12 0zm8.647 7H17.426a19.676 19.676 0 0 0-2.821-4.644A10.031 10.031 0 0 1 20.647 7zM16.5 12a10.211 10.211 0 0 1-.476 3H7.976a10.211 10.211 0 0 1-.476-3 10.211 10.211 0 0 1 .476-3h8.048a10.211 10.211 0 0 1 .476 3zM8.778 17h6.444a19.614 19.614 0 0 1-6.444 4.588A19.57 19.57 0 0 1 8.778 17zm0-10A19.614 19.614 0 0 1 12 2.412a19.57 19.57 0 0 1 3.222 4.588zM9.4 2.356A19.676 19.676 0 0 0 6.574 7H3.353A10.031 10.031 0 0 1 9.4 2.356zM2.461 9h3.439a12.016 12.016 0 0 0-.4 3 12.016 12.016 0 0 0 .4 3H2.461a9.992 9.992 0 0 1 0-6zm.892 8h3.113A19.676 19.676 0 0 0 9.4 21.644a10.031 10.031 0 0 1-6.047-4.644zM13.652 21.644a19.676 19.676 0 0 0 3.774-4.644h3.221A10.031 10.031 0 0 1 14.605 21.644zm7.934-6H18.1a12.016 12.016 0 0 0-.4-3 12.016 12.016 0 0 0 .4-3h3.437a9.992 9.992 0 0 1 0 6z"></path>
  </symbol>

        <!-- Іконка фільтра -->
  <symbol id="filters" viewBox="0 0 24 24">
    <path d="M10.931 2.75a3.728 3.728 0 0 0-7.195 0H0v2h3.736a3.728 3.728 0 0 0 7.195 0H24v-2ZM7.333 5.5a1.75 1.75 0 1 1 1.75-1.75A1.753 1.753 0 0 1 7.333 5.5Z"></path>
     <path d="M16.667 8.25A3.745 3.745 0 0 0 13.07 11H0v2h13.07a3.727 3.727 0 0 0 7.194 0H24V11H20.264A3.745 3.745 0 0 0 16.667 8.25Zm0 5.5A1.75 1.75 0 1 1 18.417 12 1.752 1.752 0 0 1 16.667 13.75Z"></path>
    <path d="M7.333 16.5a3.745 3.745 0 0 0-3.6 2.75H0v2h3.736a3.728 3.728 0 0 0 7.195 0H24v-2H10.931A3.745 3.745 0 0 0 7.333 16.5Zm0 5.5a1.75 1.75 0 1 1 1.75-1.75A1.753 1.753 0 0 1 7.333 22Z"></path>
  </symbol>

        <!-- Іконка меню бургера -->
  <symbol id="menu-burger" viewBox="0 0 24 24">
    <rect y="11" width="24" height="2" rx="1"></rect>
    <rect y="4" width="24" height="2" rx="1"></rect>
    <rect y="18" width="24" height="2" rx="1"></rect>
  </symbol>

</svg>
